<svg xmlns:xlink="http://www.w3.org/1999/xlink" xmlns="http://www.w3.org/2000/svg" width="150" height="50" viewBox="0 0 150 50">
  <metadata><?xpacket begin="﻿" id="W5M0MpCehiHzreSzNTczkc9d"?>
<x:xmpmeta xmlns:x="adobe:ns:meta/" x:xmptk="Adobe XMP Core 5.6-c140 79.160451, 2017/05/06-01:08:21        ">
   <rdf:RDF xmlns:rdf="http://www.w3.org/1999/02/22-rdf-syntax-ns#">
      <rdf:Description rdf:about=""/>
   </rdf:RDF>
</x:xmpmeta>
                                                                                                    
                                                                                                    
                                                                                                    
                                                                                                    
                                                                                                    
                                                                                                    
                                                                                                    
                                                                                                    
                                                                                                    
                                                                                                    
                                                                                                    
                                                                                                    
                                                                                                    
                                                                                                    
                                                                                                    
                                                                                                    
                                                                                                    
                                                                                                    
                                                                                                    
                                                                                                    
                           
<?xpacket end="w"?></metadata>
<defs>
    <style>
      .cls-1 {
        fill: #fff;
        fill-rule: evenodd;
      }
    </style>
  </defs>
  <path id="apollo_logo" data-name="apollo logo" class="cls-1" d="M392.369,44.373A15.623,15.623,0,1,0,407.994,60a15.623,15.623,0,0,0-15.625-15.623m0,25A9.374,9.374,0,1,1,401.745,60a9.375,9.375,0,0,1-9.376,9.374m-118.749-25A15.623,15.623,0,1,0,283,72.5V75.62h6.25V60A15.623,15.623,0,0,0,273.62,44.373m0,25A9.374,9.374,0,1,1,283,60a9.375,9.375,0,0,1-9.375,9.374m89.735,6.249h-6.249V35h6.249V75.62Zm10.015,0h-6.25V35h6.25V75.62ZM338.105,44.373a15.577,15.577,0,0,0-11.171,4.7,20.573,20.573,0,0,0-1.6,1.843l3.648,5.837,0.033-.054a19.593,19.593,0,0,1,2.145-3,9.374,9.374,0,1,1,0,12.592,19.629,19.629,0,0,1-2.145-3l-6.19-9.906a24.074,24.074,0,0,0-3.22-4.315A15.625,15.625,0,0,0,292.808,60v25h6.25V72.5A15.626,15.626,0,0,0,319.6,70.92a20.528,20.528,0,0,0,1.6-1.843l-3.648-5.837-0.033.054a19.629,19.629,0,0,1-2.145,3,9.374,9.374,0,1,1,0-12.592,19.593,19.593,0,0,1,2.145,3l6.19,9.9a28.3,28.3,0,0,0,3.22,4.315,15.624,15.624,0,1,0,11.171-26.547" transform="translate(-258 -35)"/>
</svg>